<svg xmlns="http://www.w3.org/2000/svg" height="48" width="48" viewBox="0 0 48 48"><title>function</title><g class="nc-icon-wrapper"><path d="M33,1C26.4,1,22.57,8.351,19.87,17H13a1,1,0,0,0,0,2h6.271c-.452,1.571-.874,3.168-1.271,4.758C15.389,34.2,13.719,45,7,45a1,1,0,0,1-1-1c0-.769,1-1.1,1-2a2,2,0,0,0-2-2,3,3,0,0,0-3,3c0,2.206,2.243,4,5,4,8.281,0,12.2-11.569,15-22.758.439-1.755.851-3.52,1.266-5.242H30a1,1,0,0,0,0-2H23.755C25.669,9.339,27.853,3,33,3a1,1,0,0,1,1,1c0,.769-1,1.1-1,2a2,2,0,0,0,2,2,3,3,0,0,0,3-3C38,2.794,35.757,1,33,1Z" fill="#363636"></path><path d="M45,29c-3.331,0-5.563,2.876-7.549,6.206C36.3,31.772,34.688,29,32,29a4.392,4.392,0,0,0-2.707,1.293A1,1,0,0,0,30.7,31.71,2.486,2.486,0,0,1,32,31c1.628,0,2.118,3.849,3,7,.092.327.189.656.288.985-1.334,2.311-2.735,4.46-4.381,5.444A2,2,0,1,0,29,47c3.108,0,5.259-2.506,7.147-5.546C37.372,44.5,39.146,47,42,47a4.392,4.392,0,0,0,2.707-1.293A1,1,0,0,0,43.3,44.29,2.486,2.486,0,0,1,42,45c-2.2,0-2.835-3.566-3.77-7.145,1.481-2.618,3.018-5.181,4.863-6.284A2,2,0,1,0,45,29Z" fill="#58bfca"></path></g></svg>